<?xml version="1.0" encoding="UTF-8" standalone="no"?>
<!-- Creator: CorelDRAW X7 -->

<svg
   xmlns:dc="http://purl.org/dc/elements/1.1/"
   xmlns:cc="http://creativecommons.org/ns#"
   xmlns:rdf="http://www.w3.org/1999/02/22-rdf-syntax-ns#"
   xmlns:svg="http://www.w3.org/2000/svg"
   xmlns="http://www.w3.org/2000/svg"
   xmlns:sodipodi="http://sodipodi.sourceforge.net/DTD/sodipodi-0.dtd"
   xmlns:inkscape="http://www.inkscape.org/namespaces/inkscape"
   xml:space="preserve"
   width="252mm"
   height="52mm"
   version="1.1"
   style="clip-rule:evenodd;fill-rule:evenodd;image-rendering:optimizeQuality;shape-rendering:geometricPrecision;text-rendering:geometricPrecision"
   viewBox="0 0 25200.101 5200.0001"
   id="svg15"
   sodipodi:docname="aaaa.svg"
   inkscape:version="0.92.3 (2405546, 2018-03-11)"><title
   id="title3724">Tibetan Border 01</title><metadata
   id="metadata19"><rdf:RDF><cc:Work
       rdf:about=""><dc:format>image/svg+xml</dc:format><dc:type
         rdf:resource="http://purl.org/dc/dcmitype/StillImage" /><dc:title>Tibetan Border 01</dc:title><dc:creator><cc:Agent><dc:title>Christopher J. Fynn</dc:title></cc:Agent></dc:creator><dc:date>2016-01-24</dc:date><dc:rights><cc:Agent><dc:title>Christopher J. Fynn, All Rights Reserved</dc:title></cc:Agent></dc:rights><dc:publisher><cc:Agent><dc:title>Christopher J. Fynn</dc:title></cc:Agent></dc:publisher><dc:description>A Tibetan border design</dc:description><dc:contributor><cc:Agent><dc:title>Christopher J. Fynn</dc:title></cc:Agent></dc:contributor><cc:license
         rdf:resource="http://creativecommons.org/licenses/by-sa/4.0/" /></cc:Work><cc:License
       rdf:about="http://creativecommons.org/licenses/by-sa/4.0/"><cc:permits
         rdf:resource="http://creativecommons.org/ns#Reproduction" /><cc:permits
         rdf:resource="http://creativecommons.org/ns#Distribution" /><cc:requires
         rdf:resource="http://creativecommons.org/ns#Notice" /><cc:requires
         rdf:resource="http://creativecommons.org/ns#Attribution" /><cc:permits
         rdf:resource="http://creativecommons.org/ns#DerivativeWorks" /><cc:requires
         rdf:resource="http://creativecommons.org/ns#ShareAlike" /></cc:License></rdf:RDF></metadata><sodipodi:namedview
   pagecolor="#ffffff"
   bordercolor="#666666"
   borderopacity="1"
   objecttolerance="10"
   gridtolerance="10"
   guidetolerance="10"
   inkscape:pageopacity="0"
   inkscape:pageshadow="2"
   inkscape:window-width="1920"
   inkscape:window-height="1001"
   id="namedview17"
   showgrid="false"
   inkscape:zoom="1.1029569"
   inkscape:cx="509.99272"
   inkscape:cy="65.558039"
   inkscape:window-x="-9"
   inkscape:window-y="-9"
   inkscape:window-maximized="1"
   inkscape:current-layer="svg15" />
 <defs
   id="defs4"><style
     type="text/css"
     id="style2">
   <![CDATA[
    .fil0 {fill:black;fill-rule:nonzero}
   ]]>
  </style></defs>
 <g
   id="Layer_x0020_1"
   transform="translate(89.050856,60.000079)">
  <metadata
   id="CorelCorpID_0Corel-Layer" />
  <g
   id="_2587564488720">
   <path
   class="fil0"
   d="m 720,3124 c 0,85 -60,203 -170,203 -59,0 -152,-33 -152,-101 0,-17 42,-43 51,-59 0,-26 -26,-43 -34,-43 -102,0 -127,85 -127,136 0,101 161,211 254,211 85,0 186,-84 279,-84 34,0 68,17 93,42 -127,-169 -203,-457 -203,-677 0,-568 297,-839 415,-1262 9,-42 9,-85 9,-127 0,-195 -136,-406 -339,-406 -119,0 -280,169 -280,296 0,76 85,127 161,127 51,0 102,-25 102,-93 0,-51 -51,-93 -51,-144 0,-25 42,-51 102,-51 101,0 228,59 228,229 0,178 -110,279 -271,305 34,110 51,169 51,262 0,152 -68,296 -220,364 -68,34 -135,76 -152,119 0,8 0,17 0,17 l 25,135 c 0,144 -118,263 -271,263 -17,0 -34,0 -42,0 0,-77 34,-136 93,-178 -42,-68 -76,-136 -76,-220 0,-26 42,-94 51,-127 -111,-34 -170,-144 -170,-254 0,-136 85,-271 220,-271 110,0 220,59 220,186 0,17 -25,76 -42,76 -25,0 -34,-8 -34,-25 0,-17 17,-26 17,-43 0,-8 -8,-25 -25,-25 -34,0 -59,51 -59,68 0,67 42,110 101,110 68,0 161,-85 161,-161 0,-203 -440,-288 -440,-635 0,-390 237,-610 626,-610 305,0 559,297 601,576 102,-102 432,-178 542,-178 661,0 838,373 1169,686 76,68 321,212 567,212 466,0 694,-364 694,-847 0,-339 -372,-584 -576,-584 -313,0 -524,152 -524,474 0,127 169,398 330,398 76,0 262,-152 262,-263 0,-76 -34,-135 -110,-160 h -8 c -17,76 -34,135 -127,135 -60,0 -127,-68 -127,-127 0,-144 144,-245 288,-245 228,0 355,194 355,397 0,348 -237,534 -482,534 -356,0 -627,-339 -627,-618 0,-26 8,-76 17,-110 -127,76 -330,127 -483,127 -304,0 -482,-136 -618,-466 -59,-135 -186,-305 -364,-305 -84,0 -203,68 -203,144 0,59 68,85 110,93 34,-50 68,-67 127,-67 42,0 93,76 93,118 0,127 -152,186 -254,186 -195,0 -288,-152 -296,-245 -42,8 -85,17 -119,17 -211,0 -372,-186 -372,-347 0,-93 59,-195 178,-195 135,0 262,102 262,152 0,34 -42,68 -68,68 -17,0 -42,-25 -67,-25 -17,0 -43,25 -43,50 0,43 68,60 102,60 169,0 279,-280 516,-280 136,0 347,60 432,178 93,-161 203,-220 364,-220 347,0 424,279 601,288 9,0 9,-9 9,-9 0,-50 -43,-59 -43,-118 0,-51 68,-110 136,-110 118,0 220,68 220,161 0,144 -169,338 -347,338 -25,0 -59,-17 -93,-42 0,8 0,17 0,25 0,144 -136,221 -263,221 -161,0 -254,-102 -254,-204 0,-59 43,-127 136,-161 25,17 34,85 84,85 60,0 77,-42 77,-85 0,-101 -51,-143 -127,-143 -144,0 -322,135 -322,287 0,187 237,314 406,314 508,0 712,-576 1245,-576 398,0 610,279 703,440 17,26 34,76 50,76 9,0 26,-17 43,-25 118,-102 271,-229 271,-279 0,-51 -76,-110 -119,-110 -25,0 -51,8 -51,33 0,17 26,43 26,60 0,67 -59,101 -119,101 -76,0 -169,-51 -169,-144 0,-135 127,-321 279,-321 178,0 381,127 398,330 0,17 0,34 -8,51 68,-26 135,-34 203,-34 525,0 516,601 1185,601 297,0 491,-220 491,-373 0,-211 -169,-288 -279,-288 -110,0 -169,68 -169,178 0,51 25,60 59,60 59,0 152,-43 186,-43 43,0 68,26 68,102 0,127 -152,228 -254,228 -136,0 -296,-76 -296,-203 0,-17 0,-34 8,-42 -59,68 -118,101 -186,101 -229,0 -398,-160 -398,-338 0,-119 51,-297 228,-297 85,0 187,43 187,144 0,43 -34,127 -76,127 -26,0 -43,-42 -68,-42 -9,0 -26,25 -26,42 0,34 51,60 85,60 76,0 136,-68 186,-119 119,-127 288,-212 424,-212 152,0 313,68 423,170 59,-110 186,-195 347,-195 161,0 356,93 457,93 195,0 280,-203 474,-203 77,0 77,51 127,76 26,17 68,26 94,26 17,0 25,-9 42,-9 -51,51 -51,68 -102,76 -8,0 -25,0 -67,0 -187,0 -280,246 -517,246 -42,0 -76,-17 -110,-42 25,42 42,76 42,101 0,136 -169,237 -304,237 -110,0 -195,-51 -195,-178 0,-42 51,-127 93,-127 42,0 68,68 102,68 17,0 33,-25 33,-68 0,-33 -169,-76 -220,-76 -67,0 -101,178 -110,237 -17,153 -17,305 -118,432 -153,186 -424,279 -678,279 -287,0 -482,-93 -567,-135 0,25 0,42 0,59 0,466 -567,398 -880,542 -43,26 -127,110 -127,186 0,34 25,77 67,77 17,0 51,-9 51,-34 0,-17 -17,-26 -17,-51 0,-68 59,-85 119,-85 67,0 118,127 118,203 0,153 -161,204 -237,204 -93,0 -169,-60 -186,-119 -17,119 -178,203 -296,203 -68,0 -136,-59 -136,-135 0,-34 9,-51 17,-51 9,0 51,34 76,34 178,0 178,-398 195,-457 59,-127 169,-229 330,-237 -59,-51 -110,-144 -110,-212 0,-203 186,-347 364,-347 119,0 229,59 229,178 0,59 -51,144 -110,144 -51,0 -68,-26 -119,-26 -42,0 -76,76 -76,110 0,60 59,76 110,76 169,0 339,-169 339,-338 0,-280 -187,-322 -415,-322 -356,0 -517,330 -584,635 -102,500 -246,796 -712,864 34,34 60,127 60,152 0,186 -187,364 -449,364 -169,0 -330,-93 -330,-271 0,-110 84,-203 186,-203 34,0 85,8 85,42 0,26 -51,68 -51,102 0,25 59,68 127,68 76,0 152,-68 152,-153 0,-194 -431,-178 -525,-245 0,8 9,84 9,118 0,517 -220,1025 -728,1025 -110,0 -271,-34 -356,-34 -59,0 -212,17 -212,93 0,59 34,102 85,102 0,-9 0,-17 0,-26 0,-51 68,-110 119,-110 93,0 203,76 203,161 -9,186 -195,220 -347,220 -153,0 -330,-135 -330,-279 0,-60 33,-161 84,-195 -288,-68 -474,-389 -474,-711 0,-407 288,-864 720,-864 457,0 770,356 770,610 0,254 -262,465 -499,465 -288,0 -381,-110 -381,-279 0,-127 144,-220 228,-220 43,0 76,34 76,110 0,25 -42,51 -42,76 0,43 59,59 93,59 136,-8 203,-101 203,-228 0,-136 -245,-271 -355,-271 -296,0 -508,169 -508,542 0,338 474,508 745,508 347,0 643,-288 643,-627 0,-550 -355,-948 -931,-948 -694,0 -965,889 -965,1295 0,1084 982,1465 1676,1465 957,0 1821,-1702 3404,-1702 212,0 440,110 601,170 0,-17 0,-34 0,-51 0,-838 965,-1211 1676,-1211 348,0 830,102 1135,288 v 93 c -322,-220 -771,-305 -1152,-305 -736,0 -1583,373 -1583,1203 0,25 9,67 9,76 l -17,25 c -170,-68 -407,-186 -678,-186 -1701,0 -2277,1693 -3395,1693 -1007,0 -1761,-635 -1761,-1558 0,-609 449,-1380 1042,-1380 711,0 1007,568 1007,1008 0,372 -296,703 -703,703 -313,0 -829,-127 -829,-551 0,-398 254,-626 575,-626 144,0 432,169 432,355 0,170 -93,280 -271,280 -67,0 -169,-43 -169,-136 0,-17 25,-59 42,-84 -67,0 -152,101 -152,152 0,161 212,186 305,186 279,0 423,-169 423,-432 0,-220 -415,-482 -652,-482 -440,0 -677,415 -677,779 0,347 211,601 491,694 v 9 c -51,33 -119,127 -119,194 0,161 161,220 280,220 152,0 262,-76 262,-144 0,-50 -59,-93 -110,-93 -59,0 -102,51 -102,93 0,9 9,26 26,34 -110,0 -229,-67 -229,-169 0,-76 136,-144 229,-144 59,0 237,25 339,25 541,0 728,-516 728,-990 0,-59 -9,-136 -26,-169 l 26,-60 c 169,195 643,43 643,398 0,144 -93,186 -203,186 -68,0 -186,-25 -186,-110 0,-25 50,-67 50,-101 0,0 -16,-9 -33,-9 -85,0 -127,102 -127,136 0,144 118,228 279,228 229,0 389,-135 389,-296 0,-42 -84,-110 -84,-152 0,-26 25,-51 68,-60 457,-84 508,-254 651,-812 85,-339 221,-703 635,-703 h 9 c 313,8 499,127 499,457 0,178 -237,347 -389,347 -135,0 -195,-68 -195,-152 0,-85 60,-170 170,-170 25,0 59,9 84,26 43,0 60,-42 60,-85 0,-84 -94,-101 -161,-101 -161,0 -297,152 -297,296 0,118 127,127 127,220 0,42 -279,59 -355,237 -51,119 -51,474 -237,474 -9,0 -51,0 -77,-17 0,34 68,68 102,68 195,0 237,-135 279,-254 43,93 94,169 204,169 67,0 169,-42 169,-160 0,-34 -34,-127 -76,-127 -9,0 -26,8 -26,16 0,17 26,51 26,60 0,51 -93,93 -119,93 -59,0 -110,-51 -144,-102 0,-110 60,-220 153,-279 144,-93 838,-76 838,-542 0,-34 -9,-76 -9,-127 h 9 c 305,161 415,186 635,186 313,0 499,-93 626,-237 94,-110 111,-262 127,-406 26,-161 43,-297 170,-297 110,0 279,60 279,153 0,59 -25,118 -84,118 -43,0 -111,-42 -119,-76 -17,26 -34,59 -34,85 0,101 102,101 169,101 102,0 204,-67 204,-169 0,-51 -60,-85 -60,-135 0,-26 51,-26 68,-26 26,0 102,43 127,43 237,0 237,-178 440,-221 17,0 102,0 119,0 -42,-16 -59,-25 -76,-33 -17,-17 -43,-34 -51,-34 -152,0 -330,194 -449,194 -178,0 -347,-84 -516,-84 -170,0 -271,110 -297,254 -8,-110 -330,-229 -423,-229 -169,0 -271,68 -389,203 -68,68 -127,127 -246,127 -76,0 -152,-50 -152,-118 0,-68 25,-136 84,-136 26,0 60,26 77,43 8,-17 8,-26 8,-34 0,-51 -93,-85 -127,-85 -119,0 -161,144 -161,229 0,161 144,262 330,262 136,0 220,-118 254,-245 -8,42 -8,186 -8,220 0,85 42,161 237,161 59,0 178,-51 178,-119 0,-42 -17,-59 -34,-59 -68,0 -93,42 -195,42 -51,0 -85,-34 -85,-144 0,-76 111,-228 238,-228 177,0 364,101 364,355 0,271 -348,449 -551,449 -728,0 -669,-601 -1227,-601 -60,0 -127,8 -178,34 -68,42 -110,110 -136,110 -25,0 -34,-17 -34,-26 0,-8 0,-16 9,-25 34,-51 102,-110 102,-178 0,-220 -212,-262 -331,-262 -135,0 -211,144 -211,237 0,42 59,93 101,93 26,0 34,-25 34,-51 0,-17 -17,-34 -17,-59 0,-68 68,-93 119,-93 101,0 178,76 178,161 0,161 -195,237 -297,338 -25,17 -42,93 -59,170 h -25 c -17,-85 -34,-153 -85,-237 -220,-390 -593,-398 -652,-398 -466,0 -728,567 -1245,567 -288,0 -457,-203 -457,-373 0,-194 203,-347 373,-347 110,0 194,60 194,220 0,77 -59,127 -127,127 -50,0 -101,-17 -118,-84 -59,17 -68,84 -68,118 0,76 68,136 178,136 118,0 237,-68 237,-195 0,-25 -8,-51 -8,-76 l 16,-43 c 43,34 77,102 136,102 127,0 279,-169 279,-279 0,-60 -76,-93 -135,-93 -42,0 -85,16 -85,59 0,51 43,68 43,93 0,42 -26,76 -60,76 -211,0 -313,-288 -592,-288 -212,0 -348,110 -364,314 -60,-153 -263,-271 -458,-271 -220,0 -330,287 -525,287 -67,0 -160,-59 -160,-135 0,-42 33,-102 93,-102 34,0 76,43 84,43 9,0 17,-9 17,-26 0,-50 -135,-93 -178,-93 -93,0 -143,85 -143,144 0,119 135,271 338,271 51,0 102,-25 153,-51 l 25,17 c -8,26 -17,51 -17,68 0,127 161,212 237,212 68,0 178,-68 178,-127 0,-26 -34,-60 -51,-60 -51,0 -76,68 -118,68 -85,0 -161,-85 -161,-152 0,-127 135,-212 254,-212 178,0 347,127 423,322 76,203 186,440 567,440 144,0 432,-76 542,-135 v 42 c 0,51 -17,93 -17,144 0,178 280,550 559,550 296,0 432,-212 432,-457 0,-271 -186,-339 -271,-339 -119,0 -246,34 -246,187 0,25 34,50 60,50 59,0 50,-135 110,-135 135,0 203,93 203,245 0,153 -169,322 -305,322 -228,0 -423,-288 -423,-466 0,-347 203,-550 609,-550 288,0 635,313 635,635 0,601 -355,940 -762,940 -287,0 -525,-127 -618,-229 -254,-271 -474,-677 -1117,-677 -85,0 -381,42 -534,203 -8,9 -25,26 -42,26 -51,0 -51,-26 -51,-43 0,-25 9,-34 9,-59 0,-254 -263,-508 -525,-508 -305,0 -559,203 -559,525 0,322 415,364 415,626 0,111 -76,229 -220,229 -77,0 -153,-76 -153,-144 0,-76 51,-144 110,-144 9,0 17,0 17,0 0,0 0,0 0,0 0,-25 -84,-59 -135,-59 -102,0 -161,102 -161,203 0,102 59,203 169,212 l 26,-17 h 17 c 8,0 17,8 17,25 v 9 c -43,51 -111,101 -111,161 0,118 60,177 60,220 0,34 -68,84 -68,110 152,-9 161,-144 161,-212 0,-42 -26,-93 -26,-135 0,-110 119,-136 187,-170 135,-67 203,-186 203,-330 0,-85 -25,-169 -59,-237 -43,-17 -85,-34 -119,-68 v -34 c 26,0 59,17 85,17 161,0 296,-67 296,-237 0,-59 -59,-144 -118,-144 -26,0 -60,9 -68,17 25,43 42,77 42,119 0,85 -68,161 -169,161 -127,0 -220,-93 -220,-212 0,-144 169,-364 338,-364 271,0 424,246 424,474 0,42 0,85 -9,127 -93,364 -398,745 -398,1287 0,288 85,533 246,754 l -9,17 c -67,-34 -152,-94 -228,-94 -85,0 -186,94 -246,94 -211,0 -347,-170 -347,-288 0,-60 59,-195 161,-195 110,0 135,76 135,102 0,16 -42,33 -42,50 0,17 26,43 76,43 68,0 102,-77 102,-136 0,-110 -144,-186 -254,-186 -178,0 -305,144 -305,322 0,194 212,338 364,389 v 26 c -127,50 -135,186 -135,313 0,178 262,262 262,559 0,101 -51,135 -220,135 -59,0 -178,-51 -178,-110 0,-59 76,-93 76,-119 0,-8 -50,-42 -93,-42 -67,0 -101,102 -101,169 0,144 110,153 211,221 l -8,25 c -93,0 -119,59 -119,127 0,17 17,42 34,59 51,-110 85,-169 220,-169 229,-68 280,-186 280,-356 0,-50 -17,-84 -43,-127 l 17,-17 c 26,26 94,34 127,34 170,0 280,-101 280,-245 0,-85 -85,-229 -170,-229 -33,0 -93,26 -93,76 0,51 51,68 102,102 -51,85 -85,144 -186,144 -144,0 -237,-144 -237,-296 0,-161 101,-348 338,-348 153,0 271,94 373,204 330,321 914,702 1456,702 474,0 965,-355 1389,-669 42,-33 84,-67 127,-93 l 76,26 c 0,34 -9,67 -9,93 0,203 381,322 458,322 254,0 440,-195 440,-348 0,-143 -119,-220 -212,-220 -34,0 -85,17 -85,60 0,33 68,59 68,93 0,135 -127,211 -254,211 -101,0 -228,-101 -228,-177 0,-796 1236,-1016 1718,-1016 288,0 585,76 839,194 -26,-135 -34,-220 -34,-313 0,-855 923,-1007 1566,-1007 398,0 847,160 1033,313 v 84 c -195,-143 -627,-313 -1084,-313 -576,0 -1422,170 -1422,982 0,93 25,204 34,297 l -68,59 c -186,-127 -593,-220 -847,-220 -669,0 -1651,322 -1651,880 0,68 85,153 136,153 93,0 186,-9 186,-119 0,-25 -93,-76 -93,-110 0,-85 118,-127 195,-127 203,0 279,119 279,322 0,203 -246,398 -533,398 -178,0 -508,-161 -508,-339 0,-17 0,-25 8,-34 h -34 c -499,263 -787,720 -1481,720 -517,0 -1177,-347 -1516,-754 -59,-76 -195,-169 -364,-169 -144,0 -212,136 -212,263 0,110 51,220 153,220 42,0 93,-9 110,-51 -9,-34 -102,-42 -102,-119 0,-110 102,-152 169,-152 119,0 246,135 246,296 0,195 -119,305 -347,305 -42,0 -68,-17 -85,-25 43,93 43,118 43,152 0,161 -127,271 -288,339 -119,0 -204,76 -237,186 -77,0 -144,-51 -144,-127 0,-51 8,-110 42,-152 C 42,4758 0,4665 0,4580 c 0,-101 42,-237 169,-237 43,0 153,68 153,94 0,33 -76,110 -76,127 0,25 84,42 118,42 93,0 152,17 152,-102 0,-203 -270,-313 -270,-516 0,-170 25,-237 101,-322 l -17,-8 C 220,3615 17,3548 17,3234 c 0,-271 245,-372 389,-372 170,0 314,93 314,262 z"
   id="path7"
   inkscape:connector-curvature="0"
   style="fill:#000000;fill-rule:nonzero" />
   <path
   class="fil0"
   d="m 24302,3124 c 0,-169 144,-262 314,-262 143,0 389,101 389,372 0,314 -203,381 -313,424 l -17,8 c 76,85 101,152 101,322 0,203 -271,313 -271,516 0,119 60,102 153,102 34,0 118,-17 118,-42 0,-17 -76,-94 -76,-127 0,-26 110,-94 153,-94 127,0 169,136 169,237 0,85 -42,178 -127,221 34,42 42,101 42,152 0,76 -67,127 -144,127 -34,-110 -118,-186 -237,-186 -161,-68 -288,-178 -288,-339 0,-34 0,-59 43,-152 -17,8 -43,25 -85,25 -229,0 -347,-110 -347,-305 0,-161 127,-296 245,-296 68,0 170,42 170,152 0,77 -93,85 -102,119 17,42 68,51 110,51 102,0 153,-110 153,-220 0,-127 -68,-263 -212,-263 -169,0 -305,93 -364,169 -339,407 -999,754 -1516,754 -694,0 -982,-457 -1481,-720 h -34 c 8,9 8,17 8,34 0,178 -330,339 -508,339 -288,0 -533,-195 -533,-398 0,-203 76,-322 279,-322 77,0 195,42 195,127 0,34 -93,85 -93,110 0,110 93,119 186,119 51,0 136,-85 136,-153 0,-558 -982,-880 -1651,-880 -254,0 -661,93 -847,220 l -68,-59 c 9,-93 34,-204 34,-297 0,-812 -847,-982 -1422,-982 -457,0 -889,170 -1084,313 v -84 c 186,-153 635,-313 1033,-313 643,0 1566,152 1566,1007 0,93 -8,178 -34,313 254,-118 551,-194 839,-194 482,0 1718,220 1718,1016 0,76 -127,177 -228,177 -127,0 -254,-76 -254,-211 0,-34 67,-60 67,-93 0,-43 -50,-60 -84,-60 -93,0 -212,77 -212,220 0,153 186,348 440,348 77,0 458,-119 458,-322 0,-26 -9,-59 -9,-93 l 76,-26 c 43,26 85,60 127,93 424,314 915,669 1389,669 542,0 1126,-381 1456,-702 102,-110 220,-204 373,-204 237,0 338,187 338,348 0,152 -93,296 -237,296 -101,0 -135,-59 -186,-144 51,-34 102,-51 102,-102 0,-50 -60,-76 -94,-76 -84,0 -169,144 -169,229 0,144 110,245 280,245 33,0 101,-8 127,-34 l 16,17 c -25,43 -42,77 -42,127 0,170 51,288 280,356 135,0 169,59 220,169 17,-17 34,-42 34,-59 0,-68 -26,-127 -119,-127 l -8,-25 c 101,-68 211,-77 211,-221 0,-67 -34,-169 -101,-169 -43,0 -94,34 -94,42 0,26 77,60 77,119 0,59 -119,110 -178,110 -169,0 -220,-34 -220,-135 0,-297 262,-381 262,-559 0,-127 -8,-263 -135,-313 v -26 c 152,-51 364,-195 364,-389 0,-178 -127,-322 -305,-322 -110,0 -254,76 -254,186 0,59 34,136 102,136 50,0 76,-26 76,-43 0,-17 -43,-34 -43,-50 0,-26 26,-102 136,-102 102,0 161,135 161,195 0,118 -136,288 -347,288 -60,0 -161,-94 -246,-94 -76,0 -161,60 -228,94 l -9,-17 c 161,-221 246,-466 246,-754 0,-542 -305,-923 -398,-1287 -9,-42 -9,-85 -9,-127 0,-228 153,-474 424,-474 169,0 338,220 338,364 0,119 -93,212 -220,212 -102,0 -169,-76 -169,-161 0,-42 17,-76 42,-119 -8,-8 -42,-17 -68,-17 -59,0 -118,85 -118,144 0,170 135,237 296,237 26,0 59,-17 85,-17 v 34 c -34,34 -76,51 -119,68 -34,68 -59,152 -59,237 0,144 68,263 203,330 68,34 186,60 186,170 0,42 -25,93 -25,135 0,68 9,203 161,212 0,-26 -68,-76 -68,-110 0,-43 59,-102 59,-220 0,-60 -67,-110 -110,-161 v -9 c 0,-17 9,-25 17,-25 h 17 l 26,17 c 110,-9 169,-110 169,-212 0,-101 -59,-203 -161,-203 -51,0 -135,34 -135,59 0,0 0,0 0,0 0,0 8,0 17,0 59,0 110,68 110,144 0,68 -77,144 -153,144 -144,0 -220,-118 -220,-229 0,-262 415,-304 415,-626 0,-322 -254,-525 -559,-525 -262,0 -525,254 -525,508 0,25 9,34 9,59 0,17 0,43 -51,43 -17,0 -34,-17 -42,-26 -153,-161 -449,-203 -534,-203 -643,0 -863,406 -1117,677 -94,102 -331,229 -618,229 -407,0 -762,-339 -762,-940 0,-322 347,-635 635,-635 406,0 609,203 609,550 0,178 -195,466 -423,466 -136,0 -305,-169 -305,-322 0,-152 68,-245 203,-245 59,0 51,135 110,135 26,0 60,-25 60,-50 0,-153 -127,-187 -246,-187 -85,0 -271,68 -271,339 0,245 136,457 432,457 279,0 559,-372 559,-550 0,-51 -17,-93 -17,-144 v -42 c 110,59 398,135 542,135 381,0 491,-237 567,-440 76,-195 245,-322 423,-322 119,0 254,85 254,212 0,67 -76,152 -161,152 -42,0 -67,-68 -118,-68 -17,0 -51,34 -51,60 0,59 110,127 178,127 76,0 237,-85 237,-212 0,-17 -9,-42 -17,-68 l 25,-17 c 51,26 102,51 153,51 203,0 338,-152 338,-271 0,-59 -50,-144 -144,-144 -42,0 -177,43 -177,93 0,17 8,26 17,26 8,0 50,-43 84,-43 60,0 93,60 93,102 0,76 -93,135 -160,135 -195,0 -305,-287 -525,-287 -195,0 -398,118 -458,271 -17,-204 -152,-314 -364,-314 -279,0 -381,288 -592,288 -34,0 -60,-34 -60,-76 0,-25 43,-42 43,-93 0,-43 -43,-59 -85,-59 -59,0 -135,33 -135,93 0,110 152,279 279,279 59,0 93,-68 135,-102 l 17,43 c 0,25 -8,51 -8,76 0,127 118,195 237,195 110,0 178,-60 178,-136 0,-34 -9,-101 -68,-118 -17,67 -68,84 -118,84 -68,0 -127,-50 -127,-127 0,-160 84,-220 194,-220 170,0 373,153 373,347 0,170 -170,373 -457,373 -517,0 -779,-567 -1245,-567 -59,0 -432,8 -652,398 -51,84 -68,152 -85,237 h -25 c -17,-77 -34,-153 -59,-170 -102,-101 -297,-177 -297,-338 0,-85 77,-161 178,-161 51,0 119,25 119,93 0,25 -17,42 -17,59 0,26 8,51 34,51 42,0 101,-51 101,-93 0,-93 -76,-237 -211,-237 -119,0 -331,42 -331,262 0,68 68,127 102,178 8,9 8,17 8,25 0,9 -8,26 -33,26 -26,0 -68,-68 -136,-110 -51,-26 -118,-34 -178,-34 -558,0 -499,601 -1227,601 -204,0 -551,-178 -551,-449 0,-254 187,-355 364,-355 127,0 237,152 237,228 0,110 -33,144 -84,144 -102,0 -127,-42 -195,-42 -17,0 -34,17 -34,59 0,68 119,119 178,119 195,0 237,-76 237,-161 0,-34 0,-178 -8,-220 33,127 118,245 254,245 186,0 330,-101 330,-262 0,-85 -43,-229 -161,-229 -34,0 -127,34 -127,85 0,8 0,17 8,34 17,-17 51,-43 77,-43 59,0 84,68 84,136 0,68 -76,118 -152,118 -119,0 -178,-59 -246,-127 -118,-135 -220,-203 -389,-203 -93,0 -415,119 -423,229 -26,-144 -127,-254 -297,-254 -169,0 -338,84 -516,84 -119,0 -297,-194 -449,-194 -8,0 -34,17 -51,34 -17,8 -34,17 -76,33 17,0 102,0 119,0 203,43 203,221 440,221 25,0 101,-43 127,-43 17,0 68,0 68,26 0,50 -60,84 -60,135 0,102 102,169 203,169 68,0 170,0 170,-101 0,-26 -17,-59 -34,-85 -9,34 -76,76 -119,76 -59,0 -84,-59 -84,-118 0,-93 169,-153 279,-153 127,0 144,136 169,297 17,144 34,296 127,406 127,144 314,237 627,237 220,0 330,-25 635,-186 h 8 c 0,51 -8,93 -8,127 0,466 694,449 838,542 93,59 153,169 153,279 -34,51 -85,102 -144,102 -26,0 -119,-42 -119,-93 0,-9 26,-43 26,-60 0,-8 -17,-16 -26,-16 -42,0 -76,93 -76,127 0,118 102,160 169,160 110,0 161,-76 203,-169 43,119 85,254 280,254 34,0 101,-34 101,-68 -25,17 -67,17 -76,17 -186,0 -186,-355 -237,-474 -76,-178 -355,-195 -355,-237 0,-93 127,-102 127,-220 0,-144 -136,-296 -297,-296 -67,0 -161,17 -161,101 0,43 17,85 60,85 25,-17 59,-26 84,-26 110,0 170,85 170,170 0,84 -60,152 -195,152 -152,0 -390,-169 -390,-347 0,-330 187,-449 500,-457 h 8 c 415,0 551,364 635,703 144,558 195,728 652,812 43,9 68,34 68,60 0,42 -85,110 -85,152 0,161 161,296 390,296 161,0 279,-84 279,-228 0,-34 -42,-136 -127,-136 -17,0 -34,9 -34,9 0,34 51,76 51,101 0,85 -118,110 -186,110 -110,0 -203,-42 -203,-186 0,-355 474,-203 643,-398 l 26,60 c -17,33 -26,110 -26,169 0,474 187,990 728,990 102,0 280,-25 339,-25 93,0 229,68 229,144 0,102 -119,169 -229,169 17,-8 25,-25 25,-34 0,-42 -42,-93 -101,-93 -51,0 -110,43 -110,93 0,68 110,144 262,144 119,0 280,-59 280,-220 0,-67 -68,-161 -119,-194 v -9 c 280,-93 491,-347 491,-694 0,-364 -237,-779 -677,-779 -237,0 -652,262 -652,482 0,263 144,432 423,432 93,0 305,-25 305,-186 0,-51 -85,-152 -152,-152 17,25 42,67 42,84 0,93 -102,136 -169,136 -178,0 -271,-110 -271,-280 0,-186 288,-355 432,-355 321,0 575,228 575,626 0,424 -516,551 -829,551 -407,0 -703,-331 -703,-703 0,-440 296,-1008 1007,-1008 593,0 1042,771 1042,1380 0,923 -754,1558 -1761,1558 -1118,0 -1694,-1693 -3395,-1693 -271,0 -508,118 -678,186 l -17,-25 c 0,-9 9,-51 9,-76 0,-830 -847,-1203 -1584,-1203 -381,0 -829,85 -1151,305 v -93 c 305,-186 787,-288 1135,-288 711,0 1676,373 1676,1211 0,17 0,34 0,51 161,-60 389,-170 601,-170 1583,0 2447,1702 3404,1702 694,0 1676,-381 1676,-1465 0,-406 -271,-1295 -965,-1295 -576,0 -931,398 -931,948 0,339 296,627 643,627 271,0 745,-170 745,-508 0,-373 -212,-542 -508,-542 -110,0 -356,135 -356,271 0,127 68,220 204,228 34,0 93,-16 93,-59 0,-25 -43,-51 -43,-76 0,-76 34,-110 77,-110 84,0 228,93 228,220 0,169 -93,279 -381,279 -237,0 -499,-211 -499,-465 0,-254 313,-610 770,-610 432,0 720,457 720,864 0,322 -186,643 -474,711 51,34 84,135 84,195 0,144 -177,279 -330,279 -152,0 -338,-34 -347,-220 0,-85 110,-161 203,-161 51,0 119,59 119,110 0,9 0,17 0,26 51,0 84,-43 84,-102 0,-76 -152,-93 -211,-93 -85,0 -246,34 -356,34 -508,0 -728,-508 -728,-1025 0,-34 9,-110 9,-118 -94,67 -525,51 -525,245 0,85 76,153 152,153 68,0 127,-43 127,-68 0,-34 -51,-76 -51,-102 0,-34 51,-42 85,-42 101,0 186,93 186,203 0,178 -161,271 -330,271 -263,0 -449,-178 -449,-364 0,-25 26,-118 59,-152 -465,-68 -609,-364 -711,-864 -67,-305 -228,-635 -584,-635 -229,0 -415,42 -415,322 0,169 170,338 339,338 51,0 110,-16 110,-76 0,-34 -34,-110 -76,-110 -51,0 -68,26 -119,26 -59,0 -110,-85 -110,-144 0,-119 110,-178 229,-178 178,0 364,144 364,347 0,68 -51,161 -110,212 161,8 271,110 330,237 17,59 17,457 195,457 25,0 67,-34 76,-34 8,0 17,17 17,51 0,76 -68,135 -136,135 -118,0 -279,-84 -296,-203 -17,59 -93,119 -186,119 -76,0 -237,-51 -237,-204 0,-76 50,-203 118,-203 59,0 119,17 119,85 0,25 -17,34 -17,51 0,25 34,34 51,34 42,0 67,-43 67,-77 0,-76 -84,-160 -127,-186 -313,-144 -880,-76 -880,-542 0,-17 0,-34 0,-59 -85,42 -280,135 -567,135 -254,0 -525,-93 -678,-279 -101,-127 -101,-279 -118,-432 -9,-59 -43,-237 -110,-237 -51,0 -221,43 -221,76 0,43 17,68 34,68 34,0 60,-68 102,-68 42,0 93,85 93,127 0,127 -85,178 -195,178 -135,0 -304,-101 -304,-237 0,-25 16,-59 42,-101 -34,25 -68,42 -110,42 -237,0 -330,-246 -517,-246 -42,0 -59,0 -67,0 -51,-8 -51,-25 -102,-76 17,0 25,9 42,9 26,0 68,-9 93,-26 51,-25 51,-76 127,-76 195,0 280,203 475,203 101,0 296,-93 457,-93 161,0 288,85 347,195 110,-102 271,-170 423,-170 136,0 305,85 424,212 50,51 110,119 186,119 34,0 85,-26 85,-60 0,-17 -17,-42 -26,-42 -25,0 -42,42 -68,42 -42,0 -76,-84 -76,-127 0,-101 102,-144 186,-144 178,0 229,178 229,297 0,178 -169,338 -398,338 -68,0 -127,-33 -186,-101 8,8 8,25 8,42 0,127 -161,203 -296,203 -102,0 -254,-101 -254,-228 0,-76 25,-102 68,-102 34,0 127,43 186,43 34,0 59,-9 59,-60 0,-110 -59,-178 -169,-178 -110,0 -279,77 -279,288 0,153 194,373 491,373 668,0 660,-601 1185,-601 68,0 135,8 203,34 -8,-17 -8,-34 -8,-51 17,-203 220,-330 398,-330 152,0 279,186 279,321 0,93 -93,144 -169,144 -60,0 -119,-34 -119,-101 0,-17 26,-43 26,-60 0,-25 -26,-33 -51,-33 -43,0 -119,59 -119,110 0,50 153,177 271,279 17,8 34,25 42,25 17,0 34,-50 51,-76 93,-161 305,-440 703,-440 533,0 737,576 1245,576 169,0 406,-127 406,-314 0,-152 -178,-287 -322,-287 -76,0 -127,42 -127,143 0,43 17,85 76,85 51,0 60,-68 85,-85 93,34 136,102 136,161 0,102 -94,204 -254,204 -127,0 -263,-77 -263,-221 0,-8 0,-17 0,-25 -34,25 -68,42 -93,42 -178,0 -347,-194 -347,-338 0,-93 101,-161 220,-161 68,0 135,59 135,110 0,59 -42,68 -42,118 0,0 0,9 9,9 177,-9 254,-288 601,-288 161,0 271,59 364,220 84,-118 296,-178 432,-178 237,0 347,280 516,280 34,0 102,-17 102,-60 0,-25 -26,-50 -43,-50 -25,0 -50,25 -67,25 -26,0 -68,-34 -68,-68 0,-50 127,-152 262,-152 119,0 178,102 178,195 0,161 -161,347 -372,347 -34,0 -77,-9 -119,-17 -8,93 -102,245 -296,245 -102,0 -254,-59 -254,-186 0,-42 51,-118 93,-118 59,0 93,17 127,67 42,-8 110,-34 110,-93 0,-76 -119,-144 -203,-144 -178,0 -305,170 -364,305 -136,330 -314,466 -618,466 -153,0 -356,-51 -483,-127 8,34 17,84 17,110 0,279 -271,618 -627,618 -245,0 -482,-186 -482,-534 0,-203 127,-397 355,-397 144,0 288,101 288,245 0,59 -67,127 -127,127 -93,0 -110,-59 -127,-135 h -8 c -76,25 -110,84 -110,160 0,111 186,263 262,263 161,0 330,-271 330,-398 0,-322 -211,-474 -525,-474 -203,0 -575,245 -575,584 0,483 228,847 694,847 246,0 491,-144 567,-212 330,-313 508,-686 1169,-686 110,0 440,76 542,178 42,-279 296,-576 601,-576 389,0 626,220 626,610 0,347 -440,432 -440,635 0,76 93,161 161,161 59,0 101,-43 101,-110 0,-17 -25,-68 -59,-68 -17,0 -25,17 -25,25 0,17 17,26 17,43 0,17 -9,25 -34,25 -17,0 -43,-59 -43,-76 0,-127 111,-186 221,-186 135,0 220,135 220,271 0,110 -60,220 -170,254 9,33 51,101 51,127 0,84 -34,152 -76,220 59,42 93,101 93,178 -8,0 -25,0 -42,0 -153,0 -271,-119 -271,-263 l 25,-135 c 0,0 0,-9 0,-17 -17,-43 -84,-85 -152,-119 -153,-68 -220,-212 -220,-364 0,-93 17,-152 51,-262 -161,-26 -271,-127 -271,-305 0,-170 127,-229 228,-229 59,0 102,26 102,51 0,51 -51,93 -51,144 0,68 51,93 102,93 76,0 160,-51 160,-127 0,-127 -160,-296 -279,-296 -203,0 -339,211 -339,406 0,42 0,85 9,127 118,423 415,694 415,1262 0,220 -76,508 -203,677 25,-25 59,-42 93,-42 93,0 194,84 279,84 93,0 254,-110 254,-211 0,-51 -25,-136 -127,-136 -8,0 -34,17 -34,43 9,16 51,42 51,59 0,68 -93,101 -152,101 -110,0 -170,-118 -170,-203 z"
   id="path9"
   inkscape:connector-curvature="0"
   style="fill:#000000;fill-rule:nonzero" />
   <path
   class="fil0"
   d="m 12514,669 c 84,93 237,195 457,322 440,254 914,372 1414,431 508,60 906,280 1016,754 34,-51 59,-85 85,-136 v -93 c -34,43 -51,68 -68,93 -127,-465 -474,-626 -974,-694 -516,-76 -957,-169 -1431,-432 -245,-144 -355,-211 -499,-381 -153,170 -263,237 -508,381 -474,263 -906,356 -1431,432 -491,68 -847,229 -974,694 -17,-25 -34,-50 -68,-93 v 93 c 26,51 51,85 85,136 110,-474 508,-694 1016,-754 500,-59 974,-177 1414,-431 220,-127 381,-229 466,-322 z m 0,-440 c -330,313 -720,516 -1135,626 -296,76 -626,127 -990,212 -407,101 -610,211 -856,584 v 102 h 26 c 279,-381 440,-508 855,-602 728,-177 1262,-203 1719,-516 110,-68 228,-152 381,-254 144,102 262,186 372,254 457,313 991,339 1719,516 415,94 576,221 855,602 h 26 v -102 c -246,-373 -449,-483 -856,-584 -364,-85 -685,-136 -990,-212 -415,-110 -796,-313 -1126,-626 z"
   id="path11"
   inkscape:connector-curvature="0"
   style="fill:#000000;fill-rule:nonzero" />
  </g>
 </g>
</svg>